<svg xmlns="http://www.w3.org/2000/svg" viewBox="0 0 360 360"><defs><style>.us-white-fill{fill:#fff;}.us-red-fill{fill:#ff4755;}.us-blue-fill{fill:#0182ff;}</style></defs><g id="Layer_2" data-name="Layer 2"><g id="Layer_3" data-name="Layer 3"><circle class="us-white-fill" cx="180" cy="180" r="180"/><path class="us-red-fill" d="M180,0A179.16,179.16,0,0,0,84.05,27.69H276A179.16,179.16,0,0,0,180,0Z"/><path class="us-white-fill" d="M50.12,55.38H309.88A181,181,0,0,0,276,27.69H84.05A181,181,0,0,0,50.12,55.38Z"/><path class="us-red-fill" d="M28.3,83.08H331.7a180.5,180.5,0,0,0-21.82-27.7H50.12A180.5,180.5,0,0,0,28.3,83.08Z"/><path class="us-white-fill" d="M13.8,110.77H346.2a179,179,0,0,0-14.5-27.69H28.3A179,179,0,0,0,13.8,110.77Z"/><path class="us-red-fill" d="M4.83,138.46H355.17a178.71,178.71,0,0,0-9-27.69H13.8A178.71,178.71,0,0,0,4.83,138.46Z"/><path class="us-white-fill" d="M.52,166.15h359a179.08,179.08,0,0,0-4.31-27.69H4.83A179.08,179.08,0,0,0,.52,166.15Z"/><path class="us-red-fill" d="M0,180q0,7,.52,13.85h359Q360,187,360,180t-.52-13.85H.52Q0,173,0,180Z"/><path class="us-white-fill" d="M4.83,221.54H355.17a179.08,179.08,0,0,0,4.31-27.69H.52A179.08,179.08,0,0,0,4.83,221.54Z"/><path class="us-red-fill" d="M13.8,249.23H346.2a178.71,178.71,0,0,0,9-27.69H4.83A178.71,178.71,0,0,0,13.8,249.23Z"/><path class="us-white-fill" d="M28.3,276.92H331.7a179,179,0,0,0,14.5-27.69H13.8A179,179,0,0,0,28.3,276.92Z"/><path class="us-red-fill" d="M50.12,304.62H309.88a180.5,180.5,0,0,0,21.82-27.7H28.3A180.5,180.5,0,0,0,50.12,304.62Z"/><path class="us-white-fill" d="M50.12,304.62a181,181,0,0,0,33.93,27.69H276a181,181,0,0,0,33.93-27.69Z"/><path class="us-red-fill" d="M84.05,332.31a180.09,180.09,0,0,0,191.9,0Z"/></g><g id="Layer_4" data-name="Layer 4"><path class="us-white-fill" d="M0,180q0,7,.52,13.85H180V0A180,180,0,0,0,0,180Z"/><path class="us-blue-fill" d="M72.52,35.6C70.65,37,68.81,38.44,67,39.9l3.67-.53Z"/><path class="us-blue-fill" d="M154,1.88l.18,1-1.57-.82a178.45,178.45,0,0,0-25.21,5.75l1.89,3.85,8.35,1.21-6,5.89,1.43,8.3-7.47-3.92-7.46,3.92,1.43-8.3-6-5.89,8.34-1.21L123,9.22A178.63,178.63,0,0,0,95.46,21.06l1,6-6.13-3.21q-7.8,4.48-15.1,9.72l2.85,5.78,8.35,1.21-6,5.89,1.42,8.31-7.46-3.93-7.46,3.93,1.42-8.31L64.08,42.3A180.57,180.57,0,0,0,14.6,108.91l.11.64-.32-.16q-2.12,4.94-3.93,10l7.54-1.1,3.73-7.56,3.73,7.56,8.35,1.21-6,5.89,1.42,8.31-7.46-3.93-7.46,3.93,1.42-8.31-5.47-5.34a180.12,180.12,0,0,0-6.15,21.73L6.14,146l8.35,1.21-6,5.89,1.43,8.31-7.47-3.92-1.08.56A182.51,182.51,0,0,0,0,180q0,7,.52,13.85H180V0A181.91,181.91,0,0,0,154,1.88ZM142.79,39.37l3.73-7.56,3.73,7.56,8.34,1.21-6,5.89L154,54.78l-7.46-3.93-7.46,3.93,1.42-8.31-6-5.89ZM168.47,79,161,75,153.54,79,155,70.65l-6-5.89,8.35-1.21L161,56l3.73,7.56,8.34,1.21-6,5.89Zm-14.33,30.59-7.46-3.92-7.47,3.92,1.43-8.31-6-5.88L143,94.15l3.73-7.56,3.73,7.56,8.34,1.21-6,5.88ZM133,133.74l-7.47-3.93-7.46,3.93,1.43-8.31-6-5.89,8.34-1.21,3.73-7.56,3.73,7.56,8.35,1.21-6,5.89ZM99,95.36l8.35-1.21L111,86.59l3.73,7.56,8.34,1.21-6,5.88,1.43,8.31L111,105.63l-7.47,3.92,1.43-8.31ZM96.5,133.74,89,129.81l-7.46,3.93L83,125.43l-6-5.89,8.34-1.21L89,110.77l3.74,7.56,8.34,1.21-6,5.89Zm32.6-70.19,8.34,1.21-6,5.89L132.83,79,125.37,75,117.9,79l1.43-8.31-6-5.89,8.35-1.21L125.37,56ZM107.15,39.37l3.73-7.56,3.73,7.56L123,40.58l-6,5.89,1.42,8.31-7.46-3.93-7.46,3.93,1.42-8.31-6-5.89Zm-22,24.18L88.88,56l3.73,7.56L101,64.76l-6,5.89L96.34,79,88.88,75,81.42,79l1.42-8.31-6-5.89ZM70.82,94.15l3.73-7.56,3.73,7.56,8.34,1.21-6,5.88L82,109.55l-7.46-3.92-7.47,3.92,1.43-8.31-6-5.88Zm-8.41,39.59L55,129.81l-7.46,3.93,1.42-8.31-6-5.89,8.34-1.21L55,110.77l3.73,7.56L67,119.54l-6,5.89ZM51.06,63.55,54.79,56l3.74,7.56,8.34,1.21-6,5.89L62.26,79,54.79,75,47.33,79l1.43-8.31-6-5.89ZM33,109.55l1.43-8.31-6-5.88,8.34-1.21,3.73-7.56,3.73,7.56,8.35,1.21-6,5.88,1.43,8.31-7.47-3.92Zm-8.64,76.06-7.46-3.92-7.46,3.92,1.42-8.31-6-5.88,8.34-1.22,3.73-7.56,3.73,7.56L29,171.42l-6,5.88Zm3.81-24.18,1.43-8.31-6-5.89L31.9,146l3.73-7.56L39.36,146l8.35,1.21-6,5.89,1.42,8.31-7.46-3.92Zm29.41,24.18-7.46-3.92-7.46,3.92,1.42-8.31-6-5.88,8.34-1.22,3.73-7.56,3.73,7.56,8.34,1.22-6,5.88Zm4.67-24.18,1.43-8.31-6-5.89L66,146l3.73-7.56L73.45,146l8.34,1.21-6,5.89,1.43,8.31-7.46-3.92Zm29.42,24.18-7.47-3.92-7.46,3.92,1.43-8.31-6-5.88,8.34-1.22,3.73-7.56,3.73,7.56,8.35,1.22-6,5.88Zm7.07-24.18,1.43-8.31-6-5.89,8.34-1.21,3.74-7.56,3.73,7.56,8.34,1.21-6,5.89,1.43,8.31-7.46-3.92Zm29.42,24.18-7.47-3.92-7.46,3.92,1.43-8.31-6-5.88L117,170.2l3.73-7.56,3.73,7.56,8.35,1.22-6,5.88Zm6.22-24.18,1.43-8.31-6-5.89,8.34-1.21,3.74-7.56,3.73,7.56,8.34,1.21-6,5.89,1.43,8.31-7.46-3.92Zm29.42,24.18-7.47-3.92-7.46,3.92,1.43-8.31-6-5.88,8.34-1.22,3.73-7.56,3.73,7.56,8.35,1.22-6,5.88Zm4.83-51.87-7.47-3.93-7.46,3.93,1.43-8.31-6-5.89,8.34-1.21,3.73-7.56,3.73,7.56,8.35,1.21-6,5.89Zm-1.43-115,1.43,8.3-7.47-3.92-7.46,3.92,1.43-8.3-6-5.89,8.34-1.21,3.73-7.56,3.73,7.56,8.35,1.21Z"/></g></g></svg>