<?xml version="1.0" encoding="UTF-8" standalone="no"?>
<!-- Created with Inkscape (http://www.inkscape.org/) -->

<svg
   xmlns:dc="http://purl.org/dc/elements/1.1/"
   xmlns:cc="http://creativecommons.org/ns#"
   xmlns:rdf="http://www.w3.org/1999/02/22-rdf-syntax-ns#"
   xmlns:svg="http://www.w3.org/2000/svg"
   xmlns="http://www.w3.org/2000/svg"
   xmlns:sodipodi="http://sodipodi.sourceforge.net/DTD/sodipodi-0.dtd"
   xmlns:inkscape="http://www.inkscape.org/namespaces/inkscape"
   width="3000"
   height="3000"
   id="svg4250"
   sodipodi:version="0.32"
   inkscape:version="0.47 r22583"
   version="1.0"
   sodipodi:docname="Sun symbol white.svg"
   inkscape:output_extension="org.inkscape.output.svg.inkscape">
  <defs
     id="defs4252">
    <inkscape:perspective
       sodipodi:type="inkscape:persp3d"
       inkscape:vp_x="0 : 526.18109 : 1"
       inkscape:vp_y="0 : 1000 : 0"
       inkscape:vp_z="744.09448 : 526.18109 : 1"
       inkscape:persp3d-origin="372.04724 : 350.78739 : 1"
       id="perspective4258" />
    <inkscape:perspective
       id="perspective2952"
       inkscape:persp3d-origin="0.5 : 0.33333333 : 1"
       inkscape:vp_z="1 : 0.5 : 1"
       inkscape:vp_y="0 : 1000 : 0"
       inkscape:vp_x="0 : 0.5 : 1"
       sodipodi:type="inkscape:persp3d" />
    <inkscape:perspective
       id="perspective2979"
       inkscape:persp3d-origin="0.5 : 0.33333333 : 1"
       inkscape:vp_z="1 : 0.5 : 1"
       inkscape:vp_y="0 : 1000 : 0"
       inkscape:vp_x="0 : 0.5 : 1"
       sodipodi:type="inkscape:persp3d" />
    <inkscape:perspective
       id="perspective2993"
       inkscape:persp3d-origin="0.5 : 0.33333333 : 1"
       inkscape:vp_z="1 : 0.5 : 1"
       inkscape:vp_y="0 : 1000 : 0"
       inkscape:vp_x="0 : 0.5 : 1"
       sodipodi:type="inkscape:persp3d" />
  </defs>
  <sodipodi:namedview
     id="base"
     pagecolor="#ffffff"
     bordercolor="#666666"
     borderopacity="1.0"
     inkscape:pageopacity="0.0"
     inkscape:pageshadow="2"
     inkscape:zoom="1.1871736"
     inkscape:cx="199.99989"
     inkscape:cy="200.055"
     inkscape:document-units="px"
     inkscape:current-layer="layer1"
     showgrid="false"
     inkscape:window-width="1366"
     inkscape:window-height="706"
     inkscape:window-x="-8"
     inkscape:window-y="-8"
     inkscape:window-maximized="1" />
  <metadata
     id="metadata4255">
    <rdf:RDF>
      <cc:Work
         rdf:about="">
        <dc:format>image/svg+xml</dc:format>
        <dc:type
           rdf:resource="http://purl.org/dc/dcmitype/StillImage" />
        <dc:title></dc:title>
      </cc:Work>
    </rdf:RDF>
  </metadata>
  <g
     inkscape:label="Capa 1"
     inkscape:groupmode="layer"
     id="layer1"
     transform="translate(482.85703,159.12138)">
    <g
       id="g4179"
       style="fill:#000000;fill-opacity:1;stroke:#000000;stroke-opacity:1"
       transform="translate(-402.85714,-364.06629)">
      <path
         d="M 110.19909,404.9999 L 117.54977,600.45957 C 117.54977,600.45957 117.54977,604.13593 120,604.13593 C 122.45023,604.13593 122.45023,600.45957 122.45023,600.45957 L 129.80091,404.9999"
         id="path13"
         style="fill:#000000;fill-opacity:1;stroke:#000000;stroke-width:1.83792435999999990;stroke-opacity:1" />
      <path
         id="path19"
         d="M 101.53038,468.14602 C 90.276449,492.74274 99.940557,512.84255 88.696985,534.31499 C 77.453414,555.78742 84.482597,573.47517 83.72913,583.3263 C 82.975662,593.17742 74.917679,595.91451 76.952345,598.20442 C 78.987011,600.49433 87.411365,595.95596 90.698356,582.86875 C 93.985347,569.78156 86.141634,562.24515 99.623779,535.91341 C 113.10592,509.58167 102.3934,497.70976 115.92625,474.20209"
         style="fill:#000000;fill-opacity:1;stroke:#000000;stroke-width:1.83792435999999990;stroke-opacity:1" />
      <path
         style="fill:#000000;fill-opacity:1;stroke:#000000;stroke-width:1.83792435999999990;stroke-opacity:1"
         id="path3047"
         d="M 129.80091,404.9999 L 122.45023,209.54023 C 122.45023,209.54023 122.45023,205.86387 120,205.86387 C 117.54977,205.86387 117.54977,209.54023 117.54977,209.54023 L 110.19909,404.9999" />
      <path
         d="M 138.46962,341.85378 C 149.72355,317.25706 140.05944,297.15724 151.30302,275.68481 C 162.54659,254.21237 155.51741,236.52462 156.27087,226.6735 C 157.02434,216.82237 165.08232,214.08529 163.04766,211.79538 C 161.01299,209.50547 152.58864,214.04383 149.30165,227.13104 C 146.01466,240.21824 153.85837,247.75465 140.37622,274.08639 C 126.89408,300.41813 137.6066,312.29004 124.07375,335.79771"
         id="path3053"
         style="fill:#000000;fill-opacity:1;stroke:#000000;stroke-width:1.83792448000000010;stroke-opacity:1" />
      <path
         id="path2942"
         d="M 120,395.19628 L -75.405587,402.549 C -75.405587,402.549 -79.080927,402.549 -79.080927,404.9999 C -79.080927,407.45081 -75.405587,407.45081 -75.405587,407.45081 L 120,414.80352"
         style="fill:#000000;fill-opacity:1;stroke:#000000;stroke-width:1.83792435999999990;stroke-opacity:1" />
      <path
         d="M 56.871356,386.52517 C 32.281441,375.26812 12.187186,384.9349 -9.2793075,373.68822 C -30.745801,362.44154 -48.428657,369.47266 -58.277057,368.71899 C -68.125456,367.96531 -70.861783,359.9051 -73.151057,361.94033 C -75.440332,363.97556 -70.903228,372.40224 -57.819644,375.69014 C -44.73606,378.97804 -37.201733,371.13216 -10.877283,384.61804 C 15.447168,398.10392 27.315796,387.38843 50.816955,400.92502"
         id="path2948"
         style="fill:#000000;fill-opacity:1;stroke:#000000;stroke-width:1.83792448000000010;stroke-opacity:1" />
      <path
         d="M 120,414.80352 L 315.40559,407.45081 C 315.40559,407.45081 319.08093,407.45081 319.08093,404.9999 C 319.08093,402.549 315.40559,402.549 315.40559,402.549 L 120,395.19628"
         id="path3035"
         style="fill:#000000;fill-opacity:1;stroke:#000000;stroke-width:1.83792435999999990;stroke-opacity:1" />
      <path
         id="path3041"
         d="M 183.12864,423.47463 C 207.71856,434.73168 227.81281,425.0649 249.27931,436.31158 C 270.7458,447.55826 288.42866,440.52714 298.27706,441.28081 C 308.12546,442.03449 310.86178,450.0947 313.15106,448.05947 C 315.44033,446.02424 310.90323,437.59756 297.81964,434.30966 C 284.73606,431.02176 277.20173,438.86764 250.87728,425.38176 C 224.55283,411.89588 212.6842,422.61137 189.18304,409.07478"
         style="fill:#000000;fill-opacity:1;stroke:#000000;stroke-width:1.83792448000000010;stroke-opacity:1" />
      <path
         id="path2867"
         d="M 113.06971,398.06769 L -19.905189,541.47771 C -19.905189,541.47771 -22.504047,544.07729 -20.771475,545.81034 C -19.038903,547.54339 -16.440045,544.94382 -16.440045,544.94382 L 126.93029,411.93211"
         style="fill:#000000;fill-opacity:1;stroke:#000000;stroke-width:1.83792448000000010;stroke-opacity:1" />
      <path
         d="M 62.301314,436.58734 C 36.955886,446.01991 29.580657,467.06808 6.4511485,474.29878 C -16.678361,481.52948 -24.211646,499.00836 -31.708298,505.44123 C -39.20495,511.8741 -46.837679,508.11008 -47.017715,511.16841 C -47.197751,514.22675 -38.032616,516.97621 -26.456871,510.04705 C -14.881127,503.1179 -15.099895,492.24097 13.047619,483.15758 C 41.195134,474.07418 42.012624,458.10248 68.19962,451.05187"
         id="path2873"
         style="fill:#000000;fill-opacity:1;stroke:#000000;stroke-width:1.83792448000000010;stroke-opacity:1" />
      <path
         style="fill:#000000;fill-opacity:1;stroke:#000000;stroke-width:1.83792448000000010;stroke-opacity:1"
         id="path2987"
         d="M 126.93029,411.93211 L 259.90519,268.52209 C 259.90519,268.52209 262.50405,265.92251 260.77148,264.18946 C 259.0389,262.45641 256.44004,265.05598 256.44004,265.05598 L 113.06971,398.06769" />
      <path
         d="M 177.69869,373.41246 C 203.04411,363.97989 210.41934,342.93172 233.54885,335.70102 C 256.67836,328.47032 264.21165,310.99144 271.7083,304.55857 C 279.20495,298.1257 286.83768,301.88972 287.01772,298.83139 C 287.19775,295.77305 278.03262,293.02359 266.45687,299.95275 C 254.88113,306.8819 255.09989,317.75883 226.95238,326.84222 C 198.80487,335.92562 197.98738,351.89732 171.80038,358.94793"
         id="path2993"
         style="fill:#000000;fill-opacity:1;stroke:#000000;stroke-width:1.83792448000000010;stroke-opacity:1" />
      <path
         d="M 126.93029,398.06769 L -16.440045,265.05598 C -16.440045,265.05598 -19.038903,262.45641 -20.771475,264.18946 C -22.504047,265.92251 -19.905189,268.52209 -19.905189,268.52209 L 113.06971,411.93211"
         id="path2926"
         style="fill:#000000;fill-opacity:1;stroke:#000000;stroke-width:1.83792448000000010;stroke-opacity:1" />
      <path
         id="path2932"
         d="M 88.421302,347.28524 C 78.99134,321.9328 57.949,314.55553 50.720303,291.41962 C 43.491606,268.2837 26.017556,260.74833 19.586468,253.24961 C 13.15538,245.75088 16.918359,238.11604 13.860872,237.93595 C 10.803384,237.75586 8.0546833,246.92354 14.98192,258.50249 C 21.909157,270.08144 32.783073,269.86261 41.863953,298.01791 C 50.944833,326.17322 66.91212,326.99094 73.96078,353.18518"
         style="fill:#000000;fill-opacity:1;stroke:#000000;stroke-width:1.83792448000000010;stroke-opacity:1" />
      <path
         style="fill:#000000;fill-opacity:1;stroke:#000000;stroke-width:1.83792448000000010;stroke-opacity:1"
         id="path3023"
         d="M 113.06971,411.93211 L 256.44004,544.94382 C 256.44004,544.94382 259.0389,547.54339 260.77148,545.81034 C 262.50405,544.07729 259.90519,541.47771 259.90519,541.47771 L 126.93029,398.06769" />
      <path
         d="M 151.5787,462.71456 C 161.00866,488.067 182.051,495.44427 189.2797,518.58018 C 196.50839,541.7161 213.98244,549.25147 220.41353,556.75019 C 226.84462,564.24892 223.08164,571.88376 226.13913,572.06385 C 229.19662,572.24394 231.94532,563.07626 225.01808,551.49731 C 218.09084,539.91836 207.21693,540.13719 198.13605,511.98189 C 189.05517,483.82658 173.08788,483.00886 166.03922,456.81462"
         id="path3029"
         style="fill:#000000;fill-opacity:1;stroke:#000000;stroke-width:1.83792448000000010;stroke-opacity:1" />
      <path
         id="path2814"
         d="M 110.94514,401.24822 L 42.957805,584.64316 C 42.957805,584.64316 41.551313,588.03967 43.815027,588.97759 C 46.078742,589.91551 47.485234,586.519 47.485234,586.519 L 129.05486,408.75158"
         style="fill:#000000;fill-opacity:1;stroke:#000000;stroke-width:1.83792435999999990;stroke-opacity:1" />
      <path
         d="M 78.778011,456.26933 C 58.970579,474.68585 60.209312,496.95497 41.606735,512.489 C 23.004157,528.02302 22.73134,547.05506 18.266407,555.8679 C 13.801475,564.68073 5.3097225,564.12495 6.3134406,567.0194 C 7.3171588,569.91385 16.836523,568.9457 24.880177,558.11293 C 32.923831,547.28015 28.560448,537.31493 51.090258,518.1484 C 73.620068,498.98187 68.264913,483.91301 89.761138,467.375"
         id="path2820"
         style="fill:#000000;fill-opacity:1;stroke:#000000;stroke-width:1.83792435999999990;stroke-opacity:1" />
      <path
         d="M 129.05486,408.75158 L 197.0422,225.35664 C 197.0422,225.35664 198.44869,221.96013 196.18497,221.02221 C 193.92126,220.08429 192.51477,223.4808 192.51477,223.4808 L 110.94514,401.24822"
         id="path2963"
         style="fill:#000000;fill-opacity:1;stroke:#000000;stroke-width:1.83792435999999990;stroke-opacity:1" />
      <path
         id="path2969"
         d="M 161.22199,353.73047 C 181.02942,335.31395 179.79069,313.04483 198.39327,297.5108 C 216.99584,281.97678 217.26866,262.94474 221.73359,254.1319 C 226.19853,245.31907 234.69028,245.87485 233.68656,242.9804 C 232.68284,240.08595 223.16348,241.0541 215.11982,251.88687 C 207.07617,262.71965 211.43955,272.68487 188.90974,291.8514 C 166.37993,311.01793 171.73509,326.08679 150.23886,342.6248"
         style="fill:#000000;fill-opacity:1;stroke:#000000;stroke-width:1.83792435999999990;stroke-opacity:1" />
      <path
         id="path2894"
         d="M 123.75064,395.94254 L -59.593562,327.93639 C -59.593562,327.93639 -62.989134,326.52951 -63.926795,328.79385 C -64.864456,331.05819 -61.468885,332.46507 -61.468885,332.46507 L 116.24936,414.05726"
         style="fill:#000000;fill-opacity:1;stroke:#000000;stroke-width:1.83792435999999990;stroke-opacity:1" />
      <path
         d="M 68.744753,363.76651 C 50.333327,343.9536 28.070361,345.19267 12.540635,326.58495 C -2.9890906,307.97723 -22.015872,307.70433 -30.826267,303.23817 C -39.636663,298.772 -39.081043,290.2779 -41.97469,291.28189 C -44.868337,292.28589 -43.900459,301.80789 -33.070681,309.85377 C -22.240902,317.89965 -12.278432,313.53505 6.8827957,336.0711 C 26.044024,358.60714 41.108713,353.2505 57.642157,374.75267"
         id="path2900"
         style="fill:#000000;fill-opacity:1;stroke:#000000;stroke-width:1.83792435999999990;stroke-opacity:1" />
      <path
         d="M 116.24936,414.05726 L 299.59356,482.06341 C 299.59356,482.06341 302.98913,483.47029 303.9268,481.20595 C 304.86446,478.94161 301.46888,477.53473 301.46888,477.53473 L 123.75064,395.94254"
         id="path2999"
         style="fill:#000000;fill-opacity:1;stroke:#000000;stroke-width:1.83792435999999990;stroke-opacity:1" />
      <path
         id="path3005"
         d="M 171.25525,446.23329 C 189.66667,466.0462 211.92964,464.80713 227.45936,483.41485 C 242.98909,502.02257 262.01587,502.29547 270.82627,506.76163 C 279.63666,511.2278 279.08104,519.7219 281.97469,518.71791 C 284.86834,517.71391 283.90046,508.19191 273.07068,500.14603 C 262.2409,492.10015 252.27843,496.46475 233.1172,473.9287 C 213.95598,451.39266 198.89129,456.7493 182.35784,435.24713"
         style="fill:#000000;fill-opacity:1;stroke:#000000;stroke-width:1.83792435999999990;stroke-opacity:1" />
      <path
         d="M 116.24936,395.94254 L -61.468885,477.53474 C -61.468885,477.53474 -64.864456,478.94162 -63.926795,481.20597 C -62.989134,483.47031 -59.593562,482.06342 -59.593562,482.06342 L 123.75064,414.05726"
         id="path2847"
         style="fill:#000000;fill-opacity:1;stroke:#000000;stroke-width:1.83792435999999990;stroke-opacity:1" />
      <path
         id="path2853"
         d="M 54.608722,412.09645 C 27.583909,411.10905 12.717532,427.73186 -11.41765,425.55842 C -35.552832,423.38499 -49.199709,436.64971 -58.586783,439.72327 C -67.973857,442.79683 -73.585549,436.3976 -74.921931,439.15421 C -76.258312,441.91083 -68.842713,447.95932 -55.497181,445.98868 C -42.151649,444.01805 -38.192498,433.88534 -8.7124833,436.26795 C 20.767531,438.65055 27.633209,424.20755 54.524244,427.71773"
         style="fill:#000000;fill-opacity:1;stroke:#000000;stroke-width:1.83792435999999990;stroke-opacity:1" />
      <path
         d="M 123.75064,414.05726 L 301.46888,332.46506 C 301.46888,332.46506 304.86446,331.05818 303.9268,328.79384 C 302.98913,326.52949 299.59356,327.93638 299.59356,327.93638 L 116.24936,395.94254"
         id="path2975"
         style="fill:#000000;fill-opacity:1;stroke:#000000;stroke-width:1.83792435999999990;stroke-opacity:1" />
      <path
         id="path2981"
         d="M 185.39128,397.90335 C 212.41609,398.89075 227.28247,382.26794 251.41765,384.44138 C 275.55283,386.61481 289.19971,373.35009 298.58678,370.27653 C 307.97386,367.20297 313.58555,373.6022 314.92193,370.84559 C 316.25831,368.08897 308.84271,362.04048 295.49718,364.01112 C 282.15165,365.98175 278.1925,376.11446 248.71248,373.73185 C 219.23247,371.34925 212.36679,385.79225 185.47576,382.28207"
         style="fill:#000000;fill-opacity:1;stroke:#000000;stroke-width:1.83792435999999990;stroke-opacity:1" />
      <path
         id="path2910"
         d="M 129.05486,401.24822 L 47.485234,223.4808 C 47.485234,223.4808 46.078742,220.08429 43.815027,221.02221 C 41.551313,221.96013 42.957805,225.35664 42.957805,225.35664 L 110.94514,408.75158"
         style="fill:#000000;fill-opacity:1;stroke:#000000;stroke-width:1.83792435999999990;stroke-opacity:1" />
      <path
         d="M 112.90542,339.59053 C 113.89254,312.55823 97.274331,297.68774 99.447165,273.54588 C 101.62,249.40402 88.358945,235.75337 85.286239,226.3637 C 82.213533,216.97402 88.610991,211.36078 85.855138,210.02403 C 83.099284,208.68728 77.05247,216.10493 79.022558,229.45415 C 80.992645,242.80338 91.122553,246.76363 88.740605,276.2518 C 86.358658,305.73997 100.79767,312.60755 97.288452,339.50602"
         id="path2916"
         style="fill:#000000;fill-opacity:1;stroke:#000000;stroke-width:1.83792435999999990;stroke-opacity:1" />
      <path
         d="M 110.94514,408.75158 L 192.51477,586.519 C 192.51477,586.519 193.92126,589.91551 196.18497,588.97759 C 198.44869,588.03967 197.0422,584.64316 197.0422,584.64316 L 129.05486,401.24822"
         id="path3011"
         style="fill:#000000;fill-opacity:1;stroke:#000000;stroke-width:1.83792435999999990;stroke-opacity:1" />
      <path
         id="path3017"
         d="M 127.09458,470.40927 C 126.10746,497.44157 142.72567,512.31206 140.55283,536.45392 C 138.38,560.59578 151.64105,574.24643 154.71376,583.6361 C 157.78647,593.02578 151.38901,598.63902 154.14486,599.97577 C 156.90072,601.31252 162.94753,593.89487 160.97744,580.54565 C 159.00735,567.19642 148.87745,563.23617 151.25939,533.748 C 153.64134,504.25983 139.20233,497.39225 142.71155,470.49378"
         style="fill:#000000;fill-opacity:1;stroke:#000000;stroke-width:1.83792435999999990;stroke-opacity:1" />
    </g>
    <g
       id="g4213"
       style="fill:#ffffff;fill-opacity:1"
       transform="translate(-402.85714,-364.06629)">
      <g
         id="g4172"
         style="fill:#ffffff;fill-opacity:1">
        <path
           style="fill:#ffffff;fill-opacity:1;stroke:none;stroke-width:1.50000000000000000"
           id="path15"
           d="M 115.09955,404.9999 L 120,539.18695 L 124.90045,404.9999" />
        <path
           d="M 104.63308,474.40495 C 95.90231,498.88988 105.09864,515.14283 93.376937,535.89268 C 106.40056,521.03529 97.814851,501.78021 109.19091,476.58307"
           id="path21"
           style="fill:#ffffff;fill-opacity:1;stroke:none;stroke-width:1.50000000000000000" />
        <path
           d="M 116.53486,401.5338 L 25.141683,499.88448 L 123.46514,408.466"
           id="path2869"
           style="fill:#ffffff;fill-opacity:1;stroke:none;stroke-width:1.50000000000000000" />
        <path
           d="M 115.47257,403.12406 L 68.663049,528.97256 L 124.52743,406.87574"
           id="path2816"
           style="fill:#ffffff;fill-opacity:1;stroke:none;stroke-width:1.50000000000000000" />
        <path
           style="fill:#ffffff;fill-opacity:1;stroke:none;stroke-width:1.50000000000000000"
           id="path2822"
           d="M 79.250002,463.23951 C 61.816438,482.51859 64.09473,501.05461 45.326858,515.73802 C 63.043224,506.99689 62.477619,485.92101 82.627588,466.99651" />
      </g>
      <g
         id="g4079"
         style="fill:#ffffff;fill-opacity:1">
        <path
           d="M 124.90045,404.9999 L 120,270.81285 L 115.09955,404.9999"
           id="path3049"
           style="fill:#ffffff;fill-opacity:1;stroke:none;stroke-width:1.50000000000000000" />
        <path
           style="fill:#ffffff;fill-opacity:1;stroke:none;stroke-width:1.50000000000000000"
           id="path3055"
           d="M 135.36692,335.59485 C 144.09769,311.10992 134.90136,294.85697 146.62306,274.10712 C 133.59944,288.96451 142.18515,308.21958 130.80909,333.41673" />
        <path
           d="M 120,400.09809 L -14.149917,404.9999 L 120,409.90171"
           id="path2944"
           style="fill:#ffffff;fill-opacity:1;stroke:none;stroke-width:1.50000000000000000" />
        <path
           style="fill:#ffffff;fill-opacity:1;stroke:none;stroke-width:1.50000000000000000"
           id="path2950"
           d="M 50.614152,389.62873 C 26.136,380.89554 9.8875497,390.09442 -10.85656,378.36947 C 3.9967181,391.3967 23.246466,382.80861 48.43664,394.18782" />
        <path
           style="fill:#ffffff;fill-opacity:1;stroke:none;stroke-width:1.50000000000000000"
           id="path2875"
           d="M 60.070742,443.20762 C 36.588487,454.34579 31.601887,472.34295 8.6450877,478.72451 C 28.357037,477.4304 35.897649,457.74231 61.753879,447.97155" />
        <path
           style="fill:#ffffff;fill-opacity:1;stroke:none;stroke-width:1.50000000000000000"
           id="path2928"
           d="M 123.46514,401.5338 L 25.141683,310.11532 L 116.53486,408.466" />
        <path
           d="M 81.802852,345.05405 C 70.667772,321.5653 52.675593,316.57732 46.295791,293.61416 C 47.589549,313.33157 67.272192,320.87427 77.040247,346.73766"
           id="path2934"
           style="fill:#ffffff;fill-opacity:1;stroke:none;stroke-width:1.50000000000000000" />
        <path
           style="fill:#ffffff;fill-opacity:1;stroke:none;stroke-width:1.50000000000000000"
           id="path2965"
           d="M 124.52743,406.87574 L 171.33695,281.02724 L 115.47257,403.12406" />
        <path
           d="M 121.87532,400.47122 L -3.9383634,353.64875 L 118.12468,409.52858"
           id="path2896"
           style="fill:#ffffff;fill-opacity:1;stroke:none;stroke-width:1.50000000000000000" />
        <path
           style="fill:#ffffff;fill-opacity:1;stroke:none;stroke-width:1.50000000000000000"
           id="path2902"
           d="M 61.776499,364.23863 C 42.502756,346.80024 23.97186,349.07917 9.2925041,330.3061 C 18.031218,348.02737 39.101276,347.46161 58.020535,367.61715" />
        <path
           style="fill:#ffffff;fill-opacity:1;stroke:none;stroke-width:1.50000000000000000"
           id="path2849"
           d="M 118.12468,400.47122 L -3.9383634,456.35106 L 121.87532,409.52858" />
        <path
           d="M 50.015171,417.35895 C 24.059186,418.66052 12.56686,433.3789 -11.083901,430.48709 C 7.6226646,436.837 22.121502,421.53404 49.747617,422.40453"
           id="path2855"
           style="fill:#ffffff;fill-opacity:1;stroke:none;stroke-width:1.50000000000000000" />
        <path
           d="M 124.52743,403.12406 L 68.663049,281.02724 L 115.47257,406.87574"
           id="path2912"
           style="fill:#ffffff;fill-opacity:1;stroke:none;stroke-width:1.50000000000000000" />
        <path
           style="fill:#ffffff;fill-opacity:1;stroke:none;stroke-width:1.50000000000000000"
           id="path2918"
           d="M 107.64437,334.9957 C 106.34317,309.03254 91.628848,297.53703 94.519866,273.87972 C 88.171707,292.59147 103.47043,307.09432 102.60019,334.72808" />
      </g>
      <g
         style="fill:#ffffff;fill-opacity:1"
         id="g4157">
        <path
           style="fill:#ffffff;fill-opacity:1;stroke:none;stroke-width:1.50000000000000000"
           id="path3037"
           d="M 120,409.90171 L 254.14992,404.9999 L 120,400.09809" />
        <path
           d="M 189.38585,420.37107 C 213.864,429.10426 230.11245,419.90538 250.85656,431.63033 C 236.00328,418.6031 216.75353,427.19119 191.56336,415.81198"
           id="path3043"
           style="fill:#ffffff;fill-opacity:1;stroke:none;stroke-width:1.50000000000000000" />
        <path
           d="M 123.46514,408.466 L 214.85832,310.11532 L 116.53486,401.5338"
           id="path2989"
           style="fill:#ffffff;fill-opacity:1;stroke:none;stroke-width:1.50000000000000000" />
        <path
           style="fill:#ffffff;fill-opacity:1;stroke:none;stroke-width:1.50000000000000000"
           id="path2995"
           d="M 179.92926,366.79218 C 203.41151,355.65401 208.39811,337.65685 231.35491,331.27529 C 211.64296,332.5694 204.10235,352.25749 178.24612,362.02825" />
        <path
           d="M 116.53486,408.466 L 214.85832,499.88448 L 123.46514,401.5338"
           id="path3025"
           style="fill:#ffffff;fill-opacity:1;stroke:none;stroke-width:1.50000000000000000" />
        <path
           style="fill:#ffffff;fill-opacity:1;stroke:none;stroke-width:1.50000000000000000"
           id="path3031"
           d="M 158.19715,464.94575 C 169.33223,488.4345 187.32441,493.42248 193.70421,516.38564 C 192.41045,496.66823 172.72781,489.12553 162.95975,463.26214" />
        <path
           d="M 160.75,346.76029 C 178.18356,327.48121 175.90527,308.94519 194.67314,294.26178 C 176.95678,303.00291 177.52238,324.07879 157.37241,343.00329"
           id="path2971"
           style="fill:#ffffff;fill-opacity:1;stroke:none;stroke-width:1.50000000000000000" />
        <path
           style="fill:#ffffff;fill-opacity:1;stroke:none;stroke-width:1.50000000000000000"
           id="path3001"
           d="M 118.12468,409.52858 L 243.93836,456.35105 L 121.87532,400.47122" />
        <path
           d="M 178.2235,445.76117 C 197.49724,463.19956 216.02814,460.92063 230.7075,479.6937 C 221.96878,461.97243 200.89872,462.53819 181.97947,442.38265"
           id="path3007"
           style="fill:#ffffff;fill-opacity:1;stroke:none;stroke-width:1.50000000000000000" />
        <path
           style="fill:#ffffff;fill-opacity:1;stroke:none;stroke-width:1.50000000000000000"
           id="path2977"
           d="M 121.87532,409.52858 L 243.93836,353.64874 L 118.12468,400.47122" />
        <path
           d="M 189.98483,392.64085 C 215.94081,391.33929 227.43314,376.6209 251.0839,379.51271 C 232.37734,373.1628 217.8785,388.46576 190.25238,387.59527"
           id="path2983"
           style="fill:#ffffff;fill-opacity:1;stroke:none;stroke-width:1.50000000000000000" />
        <path
           style="fill:#ffffff;fill-opacity:1;stroke:none;stroke-width:1.50000000000000000"
           id="path3013"
           d="M 115.47257,406.87574 L 171.33695,528.97256 L 124.52743,403.12406" />
        <path
           d="M 132.35563,475.0041 C 133.65683,500.96726 148.37115,512.46277 145.48013,536.12008 C 151.82829,517.40833 136.52957,502.90548 137.39981,475.27172"
           id="path3019"
           style="fill:#ffffff;fill-opacity:1;stroke:none;stroke-width:1.50000000000000000" />
      </g>
    </g>
    <circle
       style="fill:#000000;fill-opacity:1;stroke:#ffffff;stroke-width:1;stroke-opacity:1"
       sodipodi:ry="65"
       sodipodi:rx="65"
       sodipodi:cy="0"
       sodipodi:cx="0"
       cy="0"
       cx="0"
       id="circle31"
       r="65"
       transform="matrix(1.2251134,0,0,1.2254525,-282.85714,40.933611)"
       d="M 65,0 C 65,35.898509 35.898509,65 0,65 -35.898509,65 -65,35.898509 -65,0 c 0,-35.898509 29.101491,-65 65,-65 35.898509,0 65,29.101491 65,65 z" />
  </g>
</svg>
